<svg enable-background="new 0 0 135 26" viewBox="0 0 135 26" xmlns="http://www.w3.org/2000/svg"><g fill="#fff"><path d="m59.4.1h6v25.8h-6.1l-8.5-15v15h-5.9v-25.8h6l8.5 15z"/><path d="m33.2.1h6.4v25.8h-6.4z"/><path d="m0 .1 4.8 25.8h6.3l3.9-17.2 4 17.2h6.3l4.8-25.8h-6l-2.5 15.4-3.5-15.4h-6.1l-3.6 15.5-2.4-15.5z"/><path d="m114.9.1-.1 5.2h7v20.6h6.3l.1-20.6h6.8v-5.2z"/><path d="m93.9.1v25.8h18v-5.6h-11.6v-5.5h10.5v-5h-10.5v-4.5h11.3v-5.2z"/><path d="m89.2 14.5c-.8-1.1-2-1.9-3.3-2.3l-.5-.1.5-.2c.9-.3 1.7-.9 2.3-1.7.8-1.1 1.2-2.5 1.2-3.9.1-1.7-.5-3.3-1.7-4.6s-3-2-4.8-1.8h-12.6v26h11.5c.4 0 .8 0 1.2-.1.6-.1 1.3-.2 1.9-.3.9-.1 1.7-.4 2.5-.8.9-.6 1.6-1.5 2.1-2.5.5-1.1.8-2.4.8-3.6 0-1.4-.4-2.9-1.1-4.1zm-12.3-9.6h3.2c.8-.1 1.7.2 2.3.7.5.5.7 1.3.7 2s-.2 1.4-.7 2c-.7.5-1.5.8-2.3.7h-3.1v-5.4zm6.2 15c-.7.6-1.7.8-2.6.8h-3.6v-5.8h3.6c.9-.1 1.9.2 2.6.8.5.5.8 1.3.8 2 0 .8-.3 1.5-.8 2.2z"/></g></svg>